<svg id="Ristretto" xmlns="http://www.w3.org/2000/svg" viewBox="0 0 68.3 19.01"><defs><style>.cls-1{fill:#d2d2d2;}.cls-2{fill:#9c7231;}</style></defs><title>Kopjes_07</title><path class="cls-1" d="M12.83,18.51c0.24-1.16.56-2.74,0.59-2.94h1.66a2.75,2.75,0,0,0,1.31-.36C17.67,14.59,19.64,10,18.86,8A1.78,1.78,0,0,0,17,6.87H15.14c0.06-.34.32-1.89,0.32-2h0a1.06,1.06,0,0,0-1.09-.81H1.09A1.06,1.06,0,0,0,0,4.88H0C0,5.22,1.95,15.11,2.62,18.5a0.63,0.63,0,0,0,.54.51h9.16a0.52,0.52,0,0,0,.5-0.51M17,7.73a0.9,0.9,0,0,1,1,.57c0.62,1.62-1.26,5.74-2,6.12A1.89,1.89,0,0,1,15,14.7H13.6l1.38-7h2ZM1.09,5H14.38a0.35,0.35,0,0,1,.16,0L12,18.13H3.33L0.92,5A0.34,0.34,0,0,1,1.09,5"/><path class="cls-1" d="M12.83,18.51c0.24-1.16.56-2.74,0.59-2.94h1.66a2.75,2.75,0,0,0,1.31-.36C17.67,14.59,19.64,10,18.86,8A1.78,1.78,0,0,0,17,6.87H15.14c0.06-.34.32-1.89,0.32-2h0a1.06,1.06,0,0,0-1.09-.81H1.09A1.06,1.06,0,0,0,0,4.88H0C0,5.22,1.95,15.11,2.62,18.5a0.63,0.63,0,0,0,.54.51h9.16a0.52,0.52,0,0,0,.5-0.51M17,7.73a0.9,0.9,0,0,1,1,.57c0.62,1.62-1.26,5.74-2,6.12A1.89,1.89,0,0,1,15,14.7H13.6l1.38-7h2ZM1.09,5H14.38a0.35,0.35,0,0,1,.16,0L12,18.13H3.33L0.92,5A0.34,0.34,0,0,1,1.09,5"/><path class="cls-1" d="M12.83,18.51c0.24-1.16.56-2.74,0.59-2.94h1.66a2.75,2.75,0,0,0,1.31-.36C17.67,14.59,19.64,10,18.86,8A1.78,1.78,0,0,0,17,6.87H15.14c0.06-.34.32-1.89,0.32-2h0a1.06,1.06,0,0,0-1.09-.81H1.09A1.06,1.06,0,0,0,0,4.88H0C0,5.22,1.95,15.11,2.62,18.5a0.63,0.63,0,0,0,.54.51h9.16a0.52,0.52,0,0,0,.5-0.51M17,7.73a0.9,0.9,0,0,1,1,.57c0.62,1.62-1.26,5.74-2,6.12A1.89,1.89,0,0,1,15,14.7H13.6l1.38-7h2ZM1.09,5H14.38a0.35,0.35,0,0,1,.16,0L12,18.13H3.33L0.92,5A0.34,0.34,0,0,1,1.09,5"/><polygon class="cls-1" points="2.5 14.84 3.15 18.38 12.21 18.38 12.88 14.84 2.5 14.84"/><path class="cls-1" d="M34.87,18.51c0.24-1.16.56-2.74,0.59-2.94h1.66a2.75,2.75,0,0,0,1.31-.36C39.71,14.59,41.68,10,40.9,8A1.78,1.78,0,0,0,39,6.87H37.18c0.06-.34.32-1.89,0.32-2h0a1.06,1.06,0,0,0-1.09-.81H23.13A1.06,1.06,0,0,0,22,4.88h0C22,5.22,24,15.11,24.66,18.5a0.63,0.63,0,0,0,.54.51h9.16a0.52,0.52,0,0,0,.5-0.51M39,7.73a0.9,0.9,0,0,1,1,.57c0.62,1.62-1.26,5.74-2,6.12A1.89,1.89,0,0,1,37,14.7H35.64l1.38-7h2ZM23.13,5H36.42a0.35,0.35,0,0,1,.16,0l-2.5,13.12H25.37L23,5A0.34,0.34,0,0,1,23.13,5"/><path class="cls-1" d="M34.87,18.51c0.24-1.16.56-2.74,0.59-2.94h1.66a2.75,2.75,0,0,0,1.31-.36C39.71,14.59,41.68,10,40.9,8A1.78,1.78,0,0,0,39,6.87H37.18c0.06-.34.32-1.89,0.32-2h0a1.06,1.06,0,0,0-1.09-.81H23.13A1.06,1.06,0,0,0,22,4.88h0C22,5.22,24,15.11,24.66,18.5a0.63,0.63,0,0,0,.54.51h9.16a0.52,0.52,0,0,0,.5-0.51M39,7.73a0.9,0.9,0,0,1,1,.57c0.62,1.62-1.26,5.74-2,6.12A1.89,1.89,0,0,1,37,14.7H35.64l1.38-7h2ZM23.13,5H36.42a0.35,0.35,0,0,1,.16,0l-2.5,13.12H25.37L23,5A0.34,0.34,0,0,1,23.13,5"/><path class="cls-1" d="M34.87,18.51c0.24-1.16.56-2.74,0.59-2.94h1.66a2.75,2.75,0,0,0,1.31-.36C39.71,14.59,41.68,10,40.9,8A1.78,1.78,0,0,0,39,6.87H37.18c0.06-.34.32-1.89,0.32-2h0a1.06,1.06,0,0,0-1.09-.81H23.13A1.06,1.06,0,0,0,22,4.88h0C22,5.22,24,15.11,24.66,18.5a0.63,0.63,0,0,0,.54.51h9.16a0.52,0.52,0,0,0,.5-0.51M39,7.73a0.9,0.9,0,0,1,1,.57c0.62,1.62-1.26,5.74-2,6.12A1.89,1.89,0,0,1,37,14.7H35.64l1.38-7h2ZM23.13,5H36.42a0.35,0.35,0,0,1,.16,0l-2.5,13.12H25.37L23,5A0.34,0.34,0,0,1,23.13,5"/><polygon class="cls-1" points="34.23 18.36 35.9 9.45 23.54 9.45 25.18 18.36 34.23 18.36"/><path class="cls-2" d="M60.4,18.37c0.3-1.48.72-3.49,0.76-3.74h2.11a3.5,3.5,0,0,0,1.67-.46c1.63-.78,4.13-6.6,3.15-9.18a2.26,2.26,0,0,0-2.36-1.44H63.35c0.07-.43.41-2.4,0.41-2.52h0a1.35,1.35,0,0,0-1.38-1H45.46a1.35,1.35,0,0,0-1.39,1h0c0,0.43,2.48,13,3.33,17.32a0.8,0.8,0,0,0,.69.65H59.77a0.67,0.67,0,0,0,.64-0.65M65.72,4.66a1.15,1.15,0,0,1,1.33.73c0.79,2.07-1.6,7.31-2.6,7.79a2.4,2.4,0,0,1-1.34.35H61.38l1.75-8.87h2.59ZM45.46,1.14H62.38a0.44,0.44,0,0,1,.2.06L59.41,17.89H48.32L45.25,1.2a0.44,0.44,0,0,1,.21-0.06"/><path class="cls-2" d="M60.4,18.37c0.3-1.48.72-3.49,0.76-3.74h2.11a3.5,3.5,0,0,0,1.67-.46c1.63-.78,4.13-6.6,3.15-9.18a2.26,2.26,0,0,0-2.36-1.44H63.35c0.07-.43.41-2.4,0.41-2.52h0a1.35,1.35,0,0,0-1.38-1H45.46a1.35,1.35,0,0,0-1.39,1h0c0,0.43,2.48,13,3.33,17.32a0.8,0.8,0,0,0,.69.65H59.77a0.67,0.67,0,0,0,.64-0.65M65.72,4.66a1.15,1.15,0,0,1,1.33.73c0.79,2.07-1.6,7.31-2.6,7.79a2.4,2.4,0,0,1-1.34.35H61.38l1.75-8.87h2.59ZM45.46,1.14H62.38a0.44,0.44,0,0,1,.2.06L59.41,17.89H48.32L45.25,1.2a0.44,0.44,0,0,1,.21-0.06"/><path class="cls-2" d="M60.4,18.37c0.3-1.48.72-3.49,0.76-3.74h2.11a3.5,3.5,0,0,0,1.67-.46c1.63-.78,4.13-6.6,3.15-9.18a2.26,2.26,0,0,0-2.36-1.44H63.35c0.07-.43.41-2.4,0.41-2.52h0a1.35,1.35,0,0,0-1.38-1H45.46a1.35,1.35,0,0,0-1.39,1h0c0,0.43,2.48,13,3.33,17.32a0.8,0.8,0,0,0,.69.65H59.77a0.67,0.67,0,0,0,.64-0.65M65.72,4.66a1.15,1.15,0,0,1,1.33.73c0.79,2.07-1.6,7.31-2.6,7.79a2.4,2.4,0,0,1-1.34.35H61.38l1.75-8.87h2.59ZM45.46,1.14H62.38a0.44,0.44,0,0,1,.2.06L59.41,17.89H48.32L45.25,1.2a0.44,0.44,0,0,1,.21-0.06"/><polygon class="cls-2" points="59.51 18.61 62.3 5.22 45.4 5.22 48.16 18.61 59.51 18.61"/></svg>