<svg id="Layer_1" data-name="Layer 1" xmlns="http://www.w3.org/2000/svg" viewBox="0 0 19.77 27.93"><defs><style>.cls-1{fill:#010000;}</style></defs><title>gift</title><path class="cls-1" d="M18.35,9.62V26.51H1.47V9.62H18.35m.94-1.45H.53l-.5.5V27.45l.5.5H19.29l.5-.5V8.68l-.5-.5Z" transform="translate(-0.02 -0.02)"/><path class="cls-1" d="M9.95,9.58a.61.61,0,0,1-.57-.8,26.52,26.52,0,0,1,3.3-6.33C14,.52,15.6-.3,17.27.14a2.26,2.26,0,0,1,1.59,1.28,3.19,3.19,0,0,1-.26,2.74c-2,3.7-8.23,5.34-8.5,5.41Zm6.45-8.35a3.59,3.59,0,0,0-2.71,1.89A28.54,28.54,0,0,0,10.94,8c1.83-.63,5.34-2.09,6.58-4.44a2.07,2.07,0,0,0,.22-1.69,1.09,1.09,0,0,0-.79-.6A2.22,2.22,0,0,0,16.39,1.23Z" transform="translate(-0.02 -0.02)"/><path class="cls-1" d="M9.87,9.58l-.15,0c-.27-.07-6.55-1.71-8.5-5.41A3.19,3.19,0,0,1,1,1.42,2.26,2.26,0,0,1,2.55.14C4.22-.3,5.86.52,7.14,2.45a26.59,26.59,0,0,1,3.3,6.33.61.61,0,0,1-.57.8ZM3.42,1.23a2.21,2.21,0,0,0-.57.08,1.09,1.09,0,0,0-.79.6,2.07,2.07,0,0,0,.22,1.69C3.53,5.95,7,7.41,8.88,8A28.65,28.65,0,0,0,6.14,3.12,3.59,3.59,0,0,0,3.42,1.23Z" transform="translate(-0.02 -0.02)"/></svg>